<svg width="20" height="18" viewBox="0 0 20 18" fill="none" xmlns="http://www.w3.org/2000/svg">
<path d="M19.8125 7.91904C19.8111 6.58266 19.2946 5.30142 18.3762 4.35646C17.4578 3.41149 16.2126 2.87998 14.9138 2.87855C14.7589 2.87855 14.6041 2.88755 14.451 2.90196C14.056 2.03453 13.429 1.30087 12.6434 0.786915C11.8577 0.272963 10.946 0 10.015 0C9.08407 0 8.17237 0.272963 7.38673 0.786915C6.60109 1.30087 5.97406 2.03453 5.57907 2.90196C5.42599 2.88755 5.27115 2.87855 5.11632 2.87855C4.00429 2.87883 2.92544 3.2684 2.05712 3.98322C1.1888 4.69804 0.582689 5.69557 0.338417 6.81183C0.0941463 7.92809 0.226254 9.09665 0.713025 10.1254C1.1998 11.1542 2.01226 11.9819 3.01686 12.4726V16.5599C3.01686 16.9418 3.16432 17.3081 3.4268 17.5782C3.68929 17.8483 4.04529 18 4.4165 18H15.6136C15.9848 18 16.3408 17.8483 16.6033 17.5782C16.8658 17.3081 17.0132 16.9418 17.0132 16.5599V12.4726C17.8501 12.063 18.5572 11.418 19.0526 10.6122C19.548 9.80631 19.8115 8.87257 19.8125 7.91904ZM12.1355 10.6247L12.8353 7.74442C12.8829 7.56203 12.9982 7.40617 13.1563 7.3104C13.3145 7.21464 13.5029 7.18664 13.681 7.23244C13.859 7.27824 14.0124 7.39417 14.1082 7.55526C14.204 7.71635 14.2344 7.9097 14.193 8.09365L13.4931 10.9739C13.4553 11.1297 13.3679 11.268 13.2449 11.3668C13.122 11.4657 12.9704 11.5194 12.8143 11.5194C12.7568 11.5193 12.6995 11.512 12.6437 11.4978C12.4639 11.4512 12.3093 11.3332 12.214 11.1695C12.1187 11.0057 12.0905 10.8098 12.1355 10.6247ZM9.31523 7.91904C9.31523 7.72806 9.38896 7.54491 9.5202 7.40987C9.65144 7.27483 9.82944 7.19897 10.015 7.19897C10.2007 7.19897 10.3787 7.27483 10.5099 7.40987C10.6411 7.54491 10.7149 7.72806 10.7149 7.91904V10.7993C10.7149 10.9903 10.6411 11.1734 10.5099 11.3085C10.3787 11.4435 10.2007 11.5194 10.015 11.5194C9.82944 11.5194 9.65144 11.4435 9.5202 11.3085C9.38896 11.1734 9.31523 10.9903 9.31523 10.7993V7.91904ZM6.34625 7.22057C6.52628 7.17429 6.71681 7.20347 6.87593 7.30171C7.03506 7.39995 7.14975 7.55919 7.19478 7.74442L7.8946 10.6247C7.93958 10.8099 7.91121 11.006 7.81574 11.1697C7.72026 11.3334 7.5655 11.4514 7.38548 11.4978C7.32826 11.5124 7.26949 11.5197 7.21052 11.5194C7.05462 11.5192 6.90325 11.4654 6.78043 11.3666C6.65761 11.2677 6.57038 11.1296 6.53258 10.9739L5.83276 8.09365C5.81055 8.00163 5.80623 7.90599 5.82004 7.81225C5.83385 7.7185 5.86552 7.62848 5.91323 7.54736C5.96095 7.46623 6.02376 7.39561 6.09807 7.33953C6.17237 7.28345 6.25672 7.24302 6.34625 7.22057ZM15.6136 16.5599H4.4165V12.9073C4.64824 12.9421 4.88212 12.9595 5.11632 12.9595H14.9138C15.148 12.9595 15.3819 12.9421 15.6136 12.9073V16.5599Z" fill="#401D12"/>
</svg>
