<svg width="22" height="20" viewBox="0 0 22 20" fill="none" xmlns="http://www.w3.org/2000/svg">
<g clip-path="url(#clip0_213_12)">
<path d="M21.2667 17.4853H19.8V10.6408L20.0145 10.8633C20.1523 11.006 20.3392 11.086 20.534 11.0858C20.7288 11.0857 20.9155 11.0053 21.0531 10.8623C21.1907 10.7194 21.2679 10.5256 21.2677 10.3236C21.2676 10.1216 21.19 9.92796 21.0522 9.78526L12.0367 0.438787C11.7617 0.153762 11.3888 -0.00634766 11 -0.00634766C10.6112 -0.00634766 10.2383 0.153762 9.96325 0.438787L0.947833 9.78526C0.810352 9.92796 0.733164 10.1214 0.73325 10.3232C0.733336 10.5249 0.810688 10.7183 0.948292 10.8609C1.08589 11.0035 1.27248 11.0835 1.46699 11.0834C1.66151 11.0833 1.84802 11.0031 1.9855 10.8604L2.2 10.6408V17.4853H0.733333C0.538841 17.4853 0.352315 17.5654 0.214788 17.708C0.0772617 17.8506 0 18.0441 0 18.2458C0 18.4474 0.0772617 18.6409 0.214788 18.7835C0.352315 18.9261 0.538841 19.0062 0.733333 19.0062H21.2667C21.4612 19.0062 21.6477 18.9261 21.7852 18.7835C21.9227 18.6409 22 18.4474 22 18.2458C22 18.0441 21.9227 17.8506 21.7852 17.708C21.6477 17.5654 21.4612 17.4853 21.2667 17.4853ZM13.2 17.4853H8.8V12.9223C8.8 12.8214 8.83863 12.7247 8.90739 12.6534C8.97616 12.5821 9.06942 12.542 9.16667 12.542H12.8333C12.9306 12.542 13.0238 12.5821 13.0926 12.6534C13.1614 12.7247 13.2 12.8214 13.2 12.9223V17.4853Z" fill="#401D12"/>
</g>
<defs>
<clipPath id="clip0_213_12">
<rect width="22" height="20" fill="white"/>
</clipPath>
</defs>
</svg>
