<svg width="28" height="30" viewBox="0 0 28 30" fill="none" xmlns="http://www.w3.org/2000/svg">
<path d="M25.6667 0H2.33333C1.71449 0 1.121 0.244226 0.683417 0.678952C0.245833 1.11368 0 1.70329 0 2.31809V25.499C0 26.1138 0.245833 26.7034 0.683417 27.1381C1.121 27.5728 1.71449 27.817 2.33333 27.817H25.6667C26.2855 27.817 26.879 27.5728 27.3166 27.1381C27.7542 26.7034 28 26.1138 28 25.499V2.31809C28 1.70329 27.7542 1.11368 27.3166 0.678952C26.879 0.244226 26.2855 0 25.6667 0ZM20.6588 14.7285L15.9921 19.3647C15.7732 19.5822 15.4763 19.7044 15.1667 19.7044C14.8571 19.7044 14.5602 19.5822 14.3412 19.3647C14.1223 19.1472 13.9994 18.8523 13.9994 18.5447C13.9994 18.2371 14.1223 17.9422 14.3412 17.7247L17.0173 15.0676H8.16667C7.85725 15.0676 7.5605 14.9455 7.34171 14.7281C7.12292 14.5107 7 14.2159 7 13.9085C7 13.6011 7.12292 13.3063 7.34171 13.089C7.5605 12.8716 7.85725 12.7495 8.16667 12.7495H17.0173L14.3412 10.0924C14.1223 9.87489 13.9994 9.57992 13.9994 9.27235C13.9994 8.96478 14.1223 8.66981 14.3412 8.45232C14.5602 8.23484 14.8571 8.11266 15.1667 8.11266C15.4763 8.11266 15.7732 8.23484 15.9921 8.45232L20.6588 13.0885C20.7672 13.1961 20.8533 13.324 20.912 13.4647C20.9707 13.6054 21.0009 13.7562 21.0009 13.9085C21.0009 14.0608 20.9707 14.2117 20.912 14.3524C20.8533 14.4931 20.7672 14.6209 20.6588 14.7285Z" fill="#FFEFEA"/>
</svg>
