<svg width="23" height="19" viewBox="0 0 23 19" fill="none" xmlns="http://www.w3.org/2000/svg">
<path d="M22.1188 6.84002H19.85C19.85 6.63846 19.7703 6.44515 19.6285 6.30262C19.4867 6.16009 19.2943 6.08002 19.0938 6.08002H12.2875C12.0869 6.08002 11.8946 6.16009 11.7528 6.30262C11.6109 6.44515 11.5313 6.63846 11.5313 6.84002H5.48126V2.66003C5.48126 2.35768 5.60077 2.06772 5.81351 1.85393C6.02624 1.64014 6.31478 1.52003 6.61563 1.52003C6.8815 1.51894 7.13989 1.60842 7.34865 1.77388C7.55741 1.93933 7.70422 2.171 7.76513 2.43108C7.80667 2.62694 7.92346 2.7984 8.0901 2.90821C8.25675 3.01801 8.45978 3.05728 8.65508 3.01748C8.85037 2.97767 9.02214 2.86202 9.13305 2.69564C9.24396 2.52927 9.28505 2.32563 9.24738 2.12898C9.11898 1.52422 8.7872 0.982374 8.30787 0.594627C7.82855 0.206879 7.23094 -0.00309782 6.61563 3.45447e-05C5.91364 3.45447e-05 5.24039 0.280283 4.74401 0.779129C4.24762 1.27798 3.96876 1.95456 3.96876 2.66003V6.84002H0.943757C0.743187 6.84002 0.550832 6.92009 0.409008 7.06262C0.267184 7.20515 0.187508 7.39846 0.187508 7.60002V11.4C0.189009 12.8105 0.747224 14.1628 1.73967 15.1601C2.73211 16.1575 4.07773 16.7185 5.48126 16.72V18.24C5.48126 18.4416 5.56093 18.6349 5.70276 18.7774C5.84458 18.9199 6.03694 19 6.23751 19C6.43808 19 6.63043 18.9199 6.77225 18.7774C6.91408 18.6349 6.99376 18.4416 6.99376 18.24V16.72H16.0688V18.24C16.0688 18.4416 16.1484 18.6349 16.2903 18.7774C16.4321 18.9199 16.6244 19 16.825 19C17.0256 19 17.2179 18.9199 17.3598 18.7774C17.5016 18.6349 17.5813 18.4416 17.5813 18.24V16.72C18.9848 16.7185 20.3304 16.1575 21.3228 15.1601C22.3153 14.1628 22.8735 12.8105 22.875 11.4V7.60002C22.875 7.39846 22.7953 7.20515 22.6535 7.06262C22.5117 6.92009 22.3193 6.84002 22.1188 6.84002ZM18.3375 7.60002V11.4H13.0438V7.60002H18.3375Z" fill="#401D12"/>
</svg>
