<svg width="503" height="453" viewBox="0 0 503 453" fill="none" xmlns="http://www.w3.org/2000/svg">
<g clip-path="url(#clip0_48_577)">
<path d="M192.276 452.187L128.48 453C101.824 436.155 83.9319 423.069 77.2549 414.215L94.3994 396.997C117.612 419.547 151.084 439.863 192.276 452.187Z" fill="#71311D"/>
<path d="M77.6896 382.15C64.2486 363.341 52.0771 347.326 45.6087 333.427L24.8822 343.195C34.55 362.613 45.7826 382.269 60.5624 398.826L77.9678 382.082" fill="#71311D"/>
<path d="M82.4887 388.566L88.6788 393.459L72.3515 411.353L66.5265 405.394C72.5427 399.232 77.5331 393.899 82.506 388.583L82.4887 388.566Z" fill="#71311D"/>
<path d="M41.3313 327.146C32.2721 301.887 25.9255 278.186 26.934 258.734H4.50349C4.88603 287.226 9.18086 313.365 21.196 334.917" fill="#71311D"/>
<path d="M4.50349 245.393L26.4298 245.106V251.827H4.50349V245.393Z" fill="#71311D"/>
<path d="M4.50349 239.028C7.30296 210.705 11.8412 176.812 20.796 166.857C27.4904 169.16 34.6369 172.715 41.992 176.863C34.6891 196.535 29.5596 217.172 28.0295 239.383L4.50349 239.028Z" fill="#71311D"/>
<path d="M21.9784 159.104L44.3568 169.38C53.3985 149.725 64.1443 131.339 77.2375 114.647C69.8998 108.315 63.9878 102.711 61.5535 98.9869C41.8355 117.085 29.6465 138.5 21.9784 159.121V159.104Z" fill="#71311D"/>
<path d="M70.178 88.7615L86.7835 105.759L81.8975 110.364L65.205 93.3494L70.178 88.7615Z" fill="#71311D"/>
<path d="M75.9855 83.107C93.617 65.4495 114.013 51.1779 137.782 40.9525C140.686 47.4873 144.025 53.7004 148.146 59.3549C127.958 70.4437 109.336 83.9366 92.1216 99.5794L75.9855 83.1239V83.107Z" fill="#71311D"/>
<path d="M51.4337 171.056L184.504 225.484L181.826 233.915L49.608 178.352L51.4337 171.056Z" fill="#71311D"/>
<path d="M105.458 237.369H36.0105V248.458H105.458V237.369Z" fill="#71311D"/>
<path d="M36.0105 255.009H105.458V262.661L36.0105 264.202V255.009Z" fill="#71311D"/>
<path d="M180.957 244.411H115.63L112.605 256.194H180.957V244.411Z" fill="#71311D"/>
<path d="M145.138 37.0079L154.579 57.645C182.748 50.1113 209.438 43.6443 234.79 40.9355C233.59 31.7259 232.912 23.0918 234.79 17.1665C201.805 19.5874 169.533 25.4112 145.138 37.0079Z" fill="#71311D"/>
<path d="M24.8822 453L62.6316 411.353L70.7344 420.191L41.3313 453H24.8822Z" fill="#71311D"/>
<path d="M82.1931 374.21L121.333 334.9L157.031 290.832H169.116L140.912 323.608L145.138 332.513L91.9825 384.554L82.1931 374.21Z" fill="#71311D"/>
<path d="M95.008 388.566L145.138 343.737L166.82 333.427L199.614 307.508L184.504 326.486L150.702 352.93L105.458 398.809L95.008 388.566Z" fill="#71311D"/>
<path d="M189.964 282.791L148.163 324.183L155.883 333.427L199.614 290.832L189.964 282.791Z" fill="#71311D"/>
<path d="M30.8115 67.4811L55.9198 94.1451L64.1965 84.2244L37.3494 63.3164" fill="#71311D"/>
<path d="M23.2478 69.2406C33.2062 69.2406 41.2791 61.3123 41.2791 51.5323C41.2791 41.7523 33.2062 33.824 23.2478 33.824C13.2893 33.824 5.2164 41.7523 5.2164 51.5323C5.2164 61.3123 13.2893 69.2406 23.2478 69.2406Z" stroke="#71311D" stroke-width="6" stroke-miterlimit="10"/>
<path d="M238.876 299.72C265.89 299.72 287.789 277.845 287.789 250.862C287.789 223.878 265.89 202.003 238.876 202.003C211.863 202.003 189.964 223.878 189.964 250.862C189.964 277.845 211.863 299.72 238.876 299.72Z" stroke="#71311D" stroke-width="15" stroke-miterlimit="10"/>
<path d="M219.958 307.508L159.326 432.177L148.163 428.131L212.29 302.412L219.958 307.508Z" fill="#71311D"/>
<path d="M180.957 264.202L49.608 320.036L51.4337 329.245L184.052 273.276L180.957 264.202Z" fill="#71311D"/>
<path d="M88.6788 113.445L141.677 164.809L139.382 171.056L82.1931 122.265L88.6788 113.445Z" fill="#71311D"/>
<path d="M102.92 99.5625L155.501 157.919H145.138L97.5467 107.706L102.92 99.5625Z" fill="#71311D"/>
<path d="M150.128 70.2406L159.326 65.5342L219.958 194.706L211.525 199.311L150.128 70.2406Z" fill="#71311D"/>
<path d="M155.501 166.84L150.128 173.054L192.276 215.784L199.614 207.065L155.501 166.84Z" fill="#71311D"/>
<path d="M226.861 364.12L234.773 370.249V451.51H226.861V364.12Z" fill="#71311D"/>
<path d="M287.284 452.17L351.081 452.983C377.737 436.138 395.629 423.052 402.306 414.198L385.162 396.98C361.949 419.53 328.477 439.846 287.284 452.17Z" fill="#71311D"/>
<path d="M401.871 382.133C415.312 363.324 427.484 347.309 433.952 333.41L454.679 343.178C445.011 362.596 433.778 382.252 418.999 398.809L401.593 382.065" fill="#71311D"/>
<path d="M397.072 388.549L390.882 393.442L407.21 411.336L413.034 405.377C407.018 399.215 402.028 393.882 397.055 388.566L397.072 388.549Z" fill="#71311D"/>
<path d="M438.23 327.129C447.289 301.87 453.635 278.169 452.627 258.717H475.075C474.692 287.209 470.397 313.348 458.382 334.9" fill="#71311D"/>
<path d="M475.057 245.376L453.131 245.089V251.81H475.057V245.376Z" fill="#71311D"/>
<path d="M475.057 239.011C472.258 210.688 467.72 176.795 458.765 166.84C452.071 169.143 444.924 172.698 437.569 176.846C444.872 196.518 450.001 217.155 451.531 239.366L475.057 239.011Z" fill="#71311D"/>
<path d="M457.583 159.104L435.204 169.38C426.162 149.725 415.417 131.339 402.324 114.647C409.661 108.315 415.573 102.711 418.007 98.9869C437.725 117.085 449.914 138.5 457.583 159.121V159.104Z" fill="#71311D"/>
<path d="M409.383 88.7445L392.777 105.742L397.681 110.347L414.373 93.3493L409.383 88.7445Z" fill="#71311D"/>
<path d="M403.575 83.09C385.944 65.4326 365.548 51.161 341.778 40.9355C338.875 47.4703 335.536 53.6835 331.415 59.3379C351.603 70.4268 370.225 83.9196 387.439 99.5625L403.575 83.107V83.09Z" fill="#71311D"/>
<path d="M428.127 171.056L295.057 225.484L297.735 233.915L429.953 178.336L428.127 171.056Z" fill="#71311D"/>
<path d="M443.55 237.352H374.103V248.441H443.55V237.352Z" fill="#71311D"/>
<path d="M443.55 254.992H374.103V262.661L443.55 264.185V254.992Z" fill="#71311D"/>
<path d="M298.604 244.395H363.931L366.956 256.194H298.604V244.395Z" fill="#71311D"/>
<path d="M334.423 36.991L324.982 57.6281C296.813 50.0944 270.123 43.6274 244.771 40.9186C245.971 31.709 246.649 23.0749 244.771 17.1496C277.756 19.5705 310.028 25.3943 334.423 36.991Z" fill="#71311D"/>
<path d="M454.679 452.983L416.929 411.336L408.827 420.191L438.23 452.983H454.679Z" fill="#71311D"/>
<path d="M397.368 374.193L358.228 334.9L322.53 290.832H310.445L338.649 323.591L334.423 332.513L387.578 384.537L397.368 374.193Z" fill="#71311D"/>
<path d="M384.553 388.549L334.423 343.72L312.758 333.41L279.947 307.508L295.057 326.469L328.859 352.913L374.103 398.809L384.553 388.549Z" fill="#71311D"/>
<path d="M289.614 282.774L331.415 324.166L323.678 333.41L279.947 290.832L289.614 282.774Z" fill="#71311D"/>
<path d="M259.603 307.508L320.235 432.16L331.415 428.114L267.271 302.395L259.603 307.508Z" fill="#71311D"/>
<path d="M298.604 264.185L429.953 320.036L428.127 329.228L295.509 273.276L298.604 264.185Z" fill="#71311D"/>
<path d="M390.882 113.445L337.884 164.792L340.179 171.056L397.368 122.248L390.882 113.445Z" fill="#71311D"/>
<path d="M376.641 99.5455L324.078 157.902H334.423L382.014 107.689L376.641 99.5455Z" fill="#71311D"/>
<path d="M329.433 70.2406L320.235 65.5342L259.603 194.689L268.053 199.294L329.433 70.2406Z" fill="#71311D"/>
<path d="M324.078 166.84L329.433 173.037L287.285 215.784L279.947 207.048L324.078 166.84Z" fill="#71311D"/>
<path d="M252.7 364.103L244.788 370.232V451.493H252.7V364.103Z" fill="#71311D"/>
<path d="M403.575 72.9154L414.373 61.7758L431.744 76.3691L417.66 88.7615L403.575 72.9154Z" fill="#71311D"/>
<path d="M353.272 35.6366L350.559 26.2577C369.686 19.1642 390.465 14.4408 407.018 16.2354C415.643 14.4578 426.145 17.3189 436.665 20.2646C447.967 31.4212 459.095 42.1206 468.328 48.2999C469.198 53.3787 469.858 57.882 470.345 61.7927C472.971 66.533 476.309 69.5295 480.569 70.2405C485.09 70.7823 488.012 69.2078 491.367 67.4133C494.619 71.6457 499.627 76.6907 503.017 79.1963L479.7 100.477L469.198 89.9804L467.163 83.2255C462.695 77.9096 458.191 73.1355 453.514 70.8669C449.862 70.1898 445.463 70.0374 440.56 70.2405C432.648 66.3637 426.371 60.6923 420.998 54.039L420.442 38.2099L402.341 31.0318C390.134 28.6955 373.372 30.6085 353.289 35.6197L353.272 35.6366Z" fill="#71311D"/>
<path d="M225.766 50.0267L234.773 48.8755V126.48L227.783 135.402L225.766 50.0267Z" fill="#71311D"/>
<path d="M243.71 50.0267H250.509V136.824L241.589 125.041L243.71 50.0267Z" fill="#71311D"/>
<path d="M232.999 9.85296H243.693V3.1658C240.111 -1.04965 236.529 -1.04965 232.947 3.1658" fill="#71311D"/>
<path d="M231.382 135.859L232.599 193.928L245.327 193.284L244.893 136.435C240.233 138.382 235.712 138.348 231.365 135.859H231.382Z" fill="#71311D"/>
<path d="M233.225 310.216L243.71 308.1L244.788 361.09H230.287L233.243 310.216H233.225Z" fill="#71311D"/>
</g>
<defs>
<clipPath id="clip0_48_577">
<rect width="503" height="453" fill="white"/>
</clipPath>
</defs>
</svg>
